<svg id="Capa_1" enable-background="new 0 0 512 512" height="512" viewBox="0 0 512 512" width="512" xmlns="http://www.w3.org/2000/svg"><g id="XMLID_10_"><g><g fill="#fff"><ellipse cx="256" cy="40" rx="40" ry="30"/><ellipse cx="404.495" cy="107.505" rx="30.003" ry="40.001" transform="matrix(.707 -.707 .707 .707 42.456 317.509)"/><ellipse cx="472" cy="256" rx="30" ry="40"/><ellipse cx="404.495" cy="404.495" rx="40.001" ry="30.003" transform="matrix(.707 -.707 .707 .707 -167.547 404.495)"/><ellipse cx="256" cy="472" rx="40" ry="30"/><ellipse cx="107.505" cy="404.495" rx="30.003" ry="40.001" transform="matrix(.707 -.707 .707 .707 -254.534 194.491)"/><ellipse cx="40" cy="256" rx="30" ry="40"/><ellipse cx="107.505" cy="107.505" rx="40.001" ry="30.003" transform="matrix(.707 -.707 .707 .707 -44.53 107.505)"/></g><path d="m157 157c25.34-25.33 60.34-41 99-41s73.66 15.67 99 41c25.33 25.34 41 60.34 41 99s-15.67 73.66-41 99c-25.34 25.33-60.34 41-99 41s-73.66-15.67-99-41c-25.33-25.34-41-60.34-41-99s15.67-73.66 41-99z" fill="#ffe6b3"/><g fill="#fff"><circle cx="316" cy="296" r="30"/><circle cx="226" cy="226" r="40"/></g></g><path d="m472 206c-19.317 0-35.479 17.205-39.195 40h-27.141c-2.157-32.984-14.962-63.903-36.761-88.761l14.957-14.957c9.597 6.905 20.457 10.483 30.612 10.483 9.679 0 18.713-3.238 25.379-9.904 15.591-15.591 12.42-44.14-7.068-63.64-.001-.001-.003-.003-.005-.004-19.499-19.488-48.049-22.659-63.64-7.068-13.66 13.66-12.922 37.255.568 56.002l-14.946 14.946c-24.856-21.798-55.776-34.604-88.761-36.761v-27.141c22.795-3.716 40-19.878 40-39.195 0-22.056-22.43-40-50-40s-50 17.944-50 40c0 19.317 17.205 35.479 40 39.195v27.141c-32.984 2.157-63.903 14.962-88.761 36.761l-14.946-14.946c13.49-18.747 14.228-42.342.568-56.002-15.591-15.59-44.139-12.421-63.64 7.068-.001.001-.003.003-.004.004-19.488 19.5-22.659 48.049-7.068 63.64 6.495 6.495 15.565 9.996 25.522 9.996 10.884 0 21.64-4.159 30.485-10.56l14.941 14.941c-21.798 24.856-34.604 55.776-36.761 88.761h-27.14c-3.716-22.794-19.878-39.999-39.195-39.999-22.056 0-40 22.43-40 50s17.944 50 40 50c19.317 0 35.479-17.205 39.195-40h27.141c2.157 32.984 14.962 63.904 36.761 88.761l-14.941 14.941c-7.44-5.384-15.792-8.903-24.233-10.109-12.359-1.765-23.941 1.713-31.773 9.546-15.591 15.591-12.421 44.14 7.072 63.645 11.167 11.16 25.298 16.968 38.266 16.968 9.679 0 18.711-3.237 25.374-9.9 13.66-13.66 12.922-37.255-.568-56.002l14.946-14.946c24.856 21.798 55.776 34.604 88.761 36.761v27.141c-22.795 3.716-40 19.878-40 39.195 0 22.056 22.43 40 50 40s50-17.944 50-40c0-19.317-17.205-35.479-40-39.195v-27.141c32.984-2.157 63.903-14.962 88.761-36.761l14.946 14.946c-13.49 18.746-14.228 42.342-.568 56.002 6.664 6.664 15.692 9.9 25.373 9.9 12.968-.001 27.104-5.811 38.271-16.972 19.488-19.5 22.659-48.049 7.068-63.64-13.661-13.66-37.256-12.922-56.002.568l-14.946-14.946c21.798-24.856 34.604-55.776 36.761-88.761h27.141c3.717 22.795 19.878 40 39.195 40 22.056 0 40-22.43 40-50s-17.945-50.001-40.001-50.001zm-88.719-119.709c2.819-2.819 6.792-4.163 11.262-4.163 7.68 0 16.827 3.968 24.098 11.235 11.494 11.504 14.73 27.694 7.068 35.355-7.668 7.668-23.859 4.428-35.357-7.07-11.499-11.498-14.738-27.69-7.071-35.357zm-157.281-46.291c0-10.841 13.738-20 30-20s30 9.159 30 20-13.738 20-30 20-30-9.159-30-20zm-124.907 92.608c-3.566.51-10.23.682-14.802-3.889-7.662-7.662-4.426-23.852 7.068-35.355 11.503-11.497 27.696-14.736 35.36-7.072 7.667 7.667 4.429 23.859-7.07 35.358-5.948 5.947-13.44 9.941-20.556 10.958zm-61.093 153.392c-10.841 0-20-13.738-20-30s9.159-30 20-30 20 13.738 20 30-9.159 30-20 30zm88.719 139.709c-7.663 7.663-23.856 4.425-35.355-7.068-11.497-11.504-14.735-27.697-7.072-35.36 3.327-3.328 7.764-4.141 11.308-4.141 1.324 0 2.524.114 3.494.252 7.116 1.017 14.608 5.011 20.556 10.959 11.498 11.499 14.736 27.691 7.069 35.358zm157.281 46.291c0 10.841-13.738 20-30 20s-30-9.159-30-20 13.738-20 30-20 30 9.159 30 20zm128.442-92.885c4.47 0 8.446 1.345 11.267 4.166 7.663 7.663 4.425 23.856-7.068 35.356-11.503 11.497-27.698 14.735-35.359 7.072-7.667-7.667-4.429-23.859 7.07-35.358 7.267-7.268 16.41-11.236 24.09-11.236zm-158.442 6.885c-34.709 0-67.347-13.512-91.902-38.045-.038-.038-.071-.08-.109-.118-.016-.016-.034-.029-.05-.044-24.466-24.546-37.939-57.136-37.939-91.793 0-71.79 58.171-130 130-130 34.71 0 67.346 13.512 91.902 38.045.038.038.071.08.109.118.016.016.034.029.051.045 24.465 24.545 37.938 57.135 37.938 91.792 0 71.795-58.175 130-130 130zm216-100c-10.841 0-20-13.738-20-30s9.159-30 20-30 20 13.738 20 30-9.159 30-20 30z" fill="#ffa96b"/></g></svg>